<svg width="16" height="16" viewBox="0 0 16 16" fill="none" xmlns="http://www.w3.org/2000/svg">
<g id="question-line">
<path id="Vector" d="M7.99992 14.6667C4.31802 14.6667 1.33325 11.6819 1.33325 8.00004C1.33325 4.31814 4.31802 1.33337 7.99992 1.33337C11.6818 1.33337 14.6666 4.31814 14.6666 8.00004C14.6666 11.6819 11.6818 14.6667 7.99992 14.6667ZM7.99992 13.3334C10.9455 13.3334 13.3333 10.9456 13.3333 8.00004C13.3333 5.05452 10.9455 2.66671 7.99992 2.66671C5.0544 2.66671 2.66659 5.05452 2.66659 8.00004C2.66659 10.9456 5.0544 13.3334 7.99992 13.3334ZM7.33325 10H8.66659V11.3334H7.33325V10ZM8.66659 8.90344V9.33337H7.33325V8.33337C7.33325 7.96517 7.63172 7.66671 7.99992 7.66671C8.55219 7.66671 8.99992 7.21897 8.99992 6.66671C8.99992 6.11442 8.55219 5.66671 7.99992 5.66671C7.51479 5.66671 7.11032 6.01219 7.01912 6.47055L5.71146 6.20901C5.92417 5.1395 6.86792 4.33337 7.99992 4.33337C9.28859 4.33337 10.3333 5.37804 10.3333 6.66671C10.3333 7.72371 9.63039 8.61657 8.66659 8.90344Z" fill="#A3A3A3"/>
</g>
</svg>
